<svg width="487" height="65" viewBox="0 0 487 65" fill="none" xmlns="http://www.w3.org/2000/svg">
<g clip-path="url(#clip0_1_2)">
<path d="M481.986 49.984C479.853 49.984 477.933 49.4507 476.226 48.384C474.519 47.2747 473.175 45.7813 472.194 43.904C471.213 42.0267 470.722 39.9147 470.722 37.568V7.04C470.722 6.10133 471.021 5.33333 471.618 4.736C472.215 4.13866 472.983 3.84 473.922 3.84C474.861 3.84 475.629 4.13866 476.226 4.736C476.823 5.33333 477.122 6.10133 477.122 7.04V37.568C477.122 39.2747 477.591 40.704 478.53 41.856C479.469 43.008 480.621 43.584 481.986 43.584H484.162C484.93 43.584 485.57 43.8827 486.082 44.48C486.637 45.0773 486.914 45.8453 486.914 46.784C486.914 47.7227 486.551 48.4907 485.826 49.088C485.143 49.6853 484.247 49.984 483.138 49.984H481.986ZM467.778 21.76C466.882 21.76 466.157 21.504 465.602 20.992C465.047 20.48 464.77 19.84 464.77 19.072C464.77 18.2187 465.047 17.536 465.602 17.024C466.157 16.512 466.882 16.256 467.778 16.256H482.562C483.458 16.256 484.183 16.512 484.738 17.024C485.293 17.536 485.57 18.2187 485.57 19.072C485.57 19.84 485.293 20.48 484.738 20.992C484.183 21.504 483.458 21.76 482.562 21.76H467.778Z" fill="black"/>
<path d="M455.193 50.048C454.254 50.048 453.465 49.7493 452.825 49.152C452.228 48.512 451.929 47.7227 451.929 46.784V31.04C451.929 28.608 451.481 26.624 450.585 25.088C449.689 23.552 448.473 22.4213 446.937 21.696C445.444 20.928 443.716 20.544 441.753 20.544C439.961 20.544 438.34 20.9067 436.889 21.632C435.438 22.3573 434.286 23.3387 433.433 24.576C432.58 25.7707 432.153 27.1573 432.153 28.736H428.121C428.121 26.048 428.761 23.6587 430.041 21.568C431.364 19.4347 433.156 17.7493 435.417 16.512C437.678 15.2747 440.217 14.656 443.033 14.656C445.977 14.656 448.601 15.296 450.905 16.576C453.252 17.8133 455.086 19.648 456.409 22.08C457.774 24.512 458.457 27.4987 458.457 31.04V46.784C458.457 47.7227 458.137 48.512 457.497 49.152C456.9 49.7493 456.132 50.048 455.193 50.048ZM428.889 50.048C427.95 50.048 427.161 49.7493 426.521 49.152C425.924 48.512 425.625 47.7227 425.625 46.784V18.24C425.625 17.2587 425.924 16.4693 426.521 15.872C427.161 15.2747 427.95 14.976 428.889 14.976C429.87 14.976 430.66 15.2747 431.257 15.872C431.854 16.4693 432.153 17.2587 432.153 18.24V46.784C432.153 47.7227 431.854 48.512 431.257 49.152C430.66 49.7493 429.87 50.048 428.889 50.048Z" fill="black"/>
<path d="M387.126 49.984C386.444 49.984 385.804 49.792 385.206 49.408C384.652 48.9813 384.268 48.4694 384.054 47.872L374.582 19.456C374.241 18.1333 374.241 17.0667 374.582 16.256C374.966 15.4027 375.777 14.976 377.014 14.976C377.825 14.976 378.486 15.2107 378.998 15.68C379.553 16.1067 380.001 16.8533 380.342 17.92L388.406 43.136H386.166L393.782 17.408C393.996 16.6827 394.358 16.1067 394.87 15.68C395.382 15.2107 396.086 14.976 396.982 14.976C397.836 14.976 398.518 15.2107 399.03 15.68C399.585 16.1067 399.948 16.6827 400.118 17.408L406.326 41.6H405.366L412.918 17.92C413.516 15.9573 414.625 14.976 416.246 14.976C417.441 14.976 418.252 15.4027 418.678 16.256C419.105 17.0667 419.084 18.1333 418.614 19.456L409.142 47.872C408.972 48.4694 408.609 48.9813 408.054 49.408C407.5 49.792 406.86 49.984 406.134 49.984C405.452 49.984 404.812 49.792 404.214 49.408C403.617 48.9813 403.233 48.4694 403.062 47.872L396.47 23.488H397.11L390.198 47.872C390.028 48.4694 389.644 48.9813 389.046 49.408C388.492 49.792 387.852 49.984 387.126 49.984Z" fill="black"/>
<path d="M353.684 50.24C350.228 50.24 347.178 49.4933 344.533 48C341.887 46.464 339.796 44.3733 338.26 41.728C336.767 39.04 336.02 35.968 336.02 32.512C336.02 29.0133 336.767 25.9413 338.26 23.296C339.796 20.608 341.887 18.5173 344.533 17.024C347.178 15.488 350.228 14.72 353.684 14.72C357.098 14.72 360.127 15.488 362.772 17.024C365.418 18.5173 367.487 20.608 368.98 23.296C370.516 25.9413 371.284 29.0133 371.284 32.512C371.284 35.968 370.538 39.04 369.044 41.728C367.551 44.3733 365.482 46.464 362.836 48C360.191 49.4933 357.14 50.24 353.684 50.24ZM353.684 44.48C355.903 44.48 357.866 43.968 359.572 42.944C361.279 41.92 362.602 40.512 363.54 38.72C364.522 36.928 365.012 34.8587 365.012 32.512C365.012 30.1653 364.522 28.096 363.54 26.304C362.602 24.4693 361.279 23.04 359.572 22.016C357.866 20.992 355.903 20.48 353.684 20.48C351.466 20.48 349.503 20.992 347.796 22.016C346.09 23.04 344.746 24.4693 343.764 26.304C342.783 28.096 342.292 30.1653 342.292 32.512C342.292 34.8587 342.783 36.928 343.764 38.72C344.746 40.512 346.09 41.92 347.796 42.944C349.503 43.968 351.466 44.48 353.684 44.48Z" fill="black"/>
<path d="M315.799 50.24C312.812 50.24 310.038 49.792 307.478 48.896C304.961 47.9573 302.998 46.784 301.59 45.376C300.95 44.6933 300.673 43.9253 300.758 43.072C300.886 42.176 301.313 41.4507 302.038 40.896C302.892 40.2133 303.724 39.936 304.534 40.064C305.388 40.1493 306.113 40.512 306.71 41.152C307.436 41.9627 308.588 42.7307 310.167 43.456C311.788 44.1387 313.58 44.48 315.542 44.48C318.017 44.48 319.895 44.0747 321.175 43.264C322.497 42.4533 323.18 41.408 323.223 40.128C323.265 38.848 322.646 37.7387 321.366 36.8C320.129 35.8613 317.847 35.0933 314.519 34.496C310.209 33.6427 307.073 32.3627 305.111 30.656C303.191 28.9493 302.231 26.8587 302.231 24.384C302.231 22.208 302.87 20.416 304.15 19.008C305.43 17.5573 307.073 16.4907 309.079 15.808C311.084 15.0827 313.175 14.72 315.351 14.72C318.167 14.72 320.663 15.168 322.839 16.064C325.015 16.96 326.743 18.1973 328.023 19.776C328.62 20.4587 328.897 21.184 328.855 21.952C328.812 22.6773 328.449 23.296 327.766 23.808C327.084 24.2773 326.273 24.4267 325.335 24.256C324.396 24.0853 323.607 23.7013 322.967 23.104C321.9 22.08 320.748 21.376 319.511 20.992C318.273 20.608 316.844 20.416 315.223 20.416C313.345 20.416 311.745 20.736 310.422 21.376C309.142 22.016 308.503 22.9547 308.503 24.192C308.503 24.96 308.695 25.664 309.079 26.304C309.505 26.9013 310.316 27.456 311.511 27.968C312.705 28.4373 314.454 28.9067 316.758 29.376C319.958 30.016 322.476 30.8267 324.31 31.808C326.188 32.7893 327.532 33.9413 328.343 35.264C329.153 36.544 329.559 38.0373 329.559 39.744C329.559 41.7067 329.025 43.4773 327.959 45.056C326.935 46.6347 325.399 47.8933 323.351 48.832C321.345 49.7707 318.828 50.24 315.799 50.24Z" fill="black"/>
<path d="M256.084 65.344C255.658 65.344 255.146 65.216 254.548 64.96C252.671 64.1067 252.159 62.7627 253.012 60.928L272.532 16.832C273.386 15.04 274.73 14.528 276.564 15.296C278.484 16.1067 279.018 17.4507 278.164 19.328L258.58 63.36C258.068 64.6827 257.236 65.344 256.084 65.344ZM263.636 48.576C262.826 48.9173 262.058 48.96 261.332 48.704C260.65 48.4053 260.095 47.8507 259.668 47.04L245.012 19.2C244.586 18.3893 244.522 17.6213 244.82 16.896C245.162 16.128 245.738 15.5733 246.548 15.232C247.359 14.8907 248.127 14.8693 248.852 15.168C249.578 15.424 250.132 15.9573 250.516 16.768L264.532 44.608C264.959 45.4187 265.108 46.208 264.98 46.976C264.895 47.7013 264.447 48.2347 263.636 48.576Z" fill="black"/>
<path d="M224.35 50.24C221.022 50.24 218.035 49.472 215.39 47.936C212.745 46.3573 210.654 44.224 209.118 41.536C207.582 38.848 206.793 35.8187 206.75 32.448V3.264C206.75 2.28267 207.049 1.49333 207.646 0.896C208.286 0.298667 209.075 0 210.014 0C210.995 0 211.785 0.298667 212.382 0.896C212.979 1.49333 213.278 2.28267 213.278 3.264V20.544C214.771 18.752 216.563 17.344 218.654 16.32C220.787 15.2533 223.113 14.72 225.63 14.72C228.745 14.72 231.539 15.5093 234.014 17.088C236.489 18.624 238.43 20.736 239.838 23.424C241.289 26.0693 242.014 29.0773 242.014 32.448C242.014 35.8187 241.225 38.848 239.646 41.536C238.11 44.224 236.019 46.3573 233.374 47.936C230.729 49.472 227.721 50.24 224.35 50.24ZM224.35 44.48C226.526 44.48 228.467 43.968 230.174 42.944C231.881 41.8773 233.225 40.4267 234.206 38.592C235.23 36.7573 235.742 34.7093 235.742 32.448C235.742 30.144 235.23 28.096 234.206 26.304C233.225 24.512 231.881 23.104 230.174 22.08C228.467 21.0133 226.526 20.48 224.35 20.48C222.217 20.48 220.275 21.0133 218.526 22.08C216.819 23.104 215.475 24.512 214.494 26.304C213.513 28.096 213.022 30.144 213.022 32.448C213.022 34.7093 213.513 36.7573 214.494 38.592C215.475 40.4267 216.819 41.8773 218.526 42.944C220.275 43.968 222.217 44.48 224.35 44.48Z" fill="black"/>
<path d="M164.698 50.24C161.157 50.24 157.999 49.4933 155.226 48C152.495 46.464 150.341 44.3733 148.762 41.728C147.226 39.04 146.458 35.968 146.458 32.512C146.458 29.0133 147.183 25.9413 148.634 23.296C150.127 20.608 152.175 18.5173 154.778 17.024C157.381 15.488 160.367 14.72 163.738 14.72C167.066 14.72 169.925 15.4667 172.314 16.96C174.703 18.4107 176.517 20.4373 177.754 23.04C179.034 25.6 179.674 28.5653 179.674 31.936C179.674 32.7467 179.397 33.4293 178.842 33.984C178.287 34.496 177.583 34.752 176.73 34.752H150.938V29.632H176.538L173.914 31.424C173.871 29.2907 173.445 27.392 172.634 25.728C171.823 24.0213 170.671 22.6773 169.178 21.696C167.685 20.7147 165.871 20.224 163.738 20.224C161.306 20.224 159.215 20.7573 157.466 21.824C155.759 22.8907 154.458 24.3627 153.562 26.24C152.666 28.0747 152.218 30.1653 152.218 32.512C152.218 34.8587 152.751 36.9493 153.818 38.784C154.885 40.6187 156.357 42.0693 158.234 43.136C160.111 44.2027 162.266 44.736 164.698 44.736C166.021 44.736 167.365 44.5013 168.73 44.032C170.138 43.52 171.269 42.944 172.122 42.304C172.762 41.8347 173.445 41.6 174.17 41.6C174.938 41.5573 175.599 41.7707 176.154 42.24C176.879 42.88 177.263 43.584 177.306 44.352C177.349 45.12 177.007 45.7813 176.282 46.336C174.831 47.488 173.018 48.4267 170.842 49.152C168.709 49.8773 166.661 50.24 164.698 50.24Z" fill="black"/>
<path d="M119.122 50.24C115.794 50.24 112.786 49.472 110.098 47.936C107.453 46.3573 105.341 44.224 103.762 41.536C102.226 38.848 101.458 35.8187 101.458 32.448C101.458 29.0773 102.162 26.0693 103.57 23.424C105.021 20.736 106.983 18.624 109.458 17.088C111.933 15.5093 114.727 14.72 117.842 14.72C120.359 14.72 122.685 15.2533 124.818 16.32C126.951 17.344 128.743 18.752 130.194 20.544V3.264C130.194 2.28267 130.493 1.49333 131.09 0.896C131.73 0.298667 132.519 0 133.458 0C134.439 0 135.229 0.298667 135.826 0.896C136.423 1.49333 136.722 2.28267 136.722 3.264V32.448C136.722 35.8187 135.933 38.848 134.354 41.536C132.818 44.224 130.727 46.3573 128.082 47.936C125.437 49.472 122.45 50.24 119.122 50.24ZM119.122 44.48C121.298 44.48 123.239 43.968 124.946 42.944C126.653 41.8773 127.997 40.4267 128.978 38.592C129.959 36.7573 130.45 34.7093 130.45 32.448C130.45 30.144 129.959 28.096 128.978 26.304C127.997 24.512 126.653 23.104 124.946 22.08C123.239 21.0133 121.298 20.48 119.122 20.48C116.989 20.48 115.047 21.0133 113.298 22.08C111.591 23.104 110.226 24.512 109.202 26.304C108.221 28.096 107.73 30.144 107.73 32.448C107.73 34.7093 108.221 36.7573 109.202 38.592C110.226 40.4267 111.591 41.8773 113.298 42.944C115.047 43.968 116.989 44.48 119.122 44.48Z" fill="black"/>
<path d="M74.6545 50.24C71.5398 50.24 68.7452 49.472 66.2705 47.936C63.7958 46.3573 61.8332 44.2453 60.3825 41.6C58.9745 38.912 58.2705 35.8827 58.2705 32.512C58.2705 29.1413 59.0385 26.112 60.5745 23.424C62.1532 20.736 64.2652 18.624 66.9105 17.088C69.5985 15.5093 72.6065 14.72 75.9345 14.72C79.2625 14.72 82.2492 15.5093 84.8945 17.088C87.5398 18.624 89.6305 20.736 91.1665 23.424C92.7452 26.112 93.5345 29.1413 93.5345 32.512H91.0385C91.0385 35.8827 90.3132 38.912 88.8625 41.6C87.4545 44.2453 85.5132 46.3573 83.0385 47.936C80.5638 49.472 77.7692 50.24 74.6545 50.24ZM75.9345 44.48C78.1105 44.48 80.0518 43.968 81.7585 42.944C83.4652 41.8773 84.8092 40.448 85.7905 38.656C86.7718 36.8213 87.2625 34.7733 87.2625 32.512C87.2625 30.208 86.7718 28.16 85.7905 26.368C84.8092 24.5333 83.4652 23.104 81.7585 22.08C80.0518 21.0133 78.1105 20.48 75.9345 20.48C73.8012 20.48 71.8598 21.0133 70.1105 22.08C68.4038 23.104 67.0385 24.5333 66.0145 26.368C65.0332 28.16 64.5425 30.208 64.5425 32.512C64.5425 34.7733 65.0332 36.8213 66.0145 38.656C67.0385 40.448 68.4038 41.8773 70.1105 42.944C71.8598 43.968 73.8012 44.48 75.9345 44.48ZM90.2705 50.048C89.3318 50.048 88.5425 49.7493 87.9025 49.152C87.3052 48.512 87.0065 47.7227 87.0065 46.784V36.992L88.2225 30.208L93.5345 32.512V46.784C93.5345 47.7227 93.2145 48.512 92.5745 49.152C91.9772 49.7493 91.2092 50.048 90.2705 50.048Z" fill="black"/>
<path d="M45.952 50.048C45.0133 50.048 44.224 49.7493 43.584 49.152C42.9867 48.512 42.688 47.7227 42.688 46.784V28.48C42.688 25.792 42.0267 23.808 40.704 22.528C39.3813 21.2053 37.6533 20.544 35.52 20.544C33.3013 20.544 31.4667 21.312 30.016 22.848C28.608 24.384 27.904 26.3467 27.904 28.736H22.592C22.592 25.9627 23.1893 23.5307 24.384 21.44C25.5787 19.3067 27.2427 17.6427 29.376 16.448C31.552 15.2533 34.0267 14.656 36.8 14.656C39.232 14.656 41.3867 15.1893 43.264 16.256C45.1413 17.3227 46.592 18.9013 47.616 20.992C48.6827 23.04 49.216 25.536 49.216 28.48V46.784C49.216 47.7227 48.9173 48.512 48.32 49.152C47.7227 49.7493 46.9333 50.048 45.952 50.048ZM3.264 50.048C2.32533 50.048 1.536 49.7493 0.896 49.152C0.298667 48.512 0 47.7227 0 46.784V18.304C0 17.3227 0.298667 16.5333 0.896 15.936C1.536 15.3387 2.32533 15.04 3.264 15.04C4.24533 15.04 5.03467 15.3387 5.632 15.936C6.22933 16.5333 6.528 17.3227 6.528 18.304V46.784C6.528 47.7227 6.22933 48.512 5.632 49.152C5.03467 49.7493 4.24533 50.048 3.264 50.048ZM24.64 50.048C23.7013 50.048 22.912 49.7493 22.272 49.152C21.6747 48.512 21.376 47.7227 21.376 46.784V28.48C21.376 25.792 20.7147 23.808 19.392 22.528C18.0693 21.2053 16.3413 20.544 14.208 20.544C11.9893 20.544 10.1547 21.312 8.704 22.848C7.25333 24.384 6.528 26.3467 6.528 28.736H2.496C2.496 25.9627 3.05067 23.5307 4.16 21.44C5.26933 19.3067 6.80533 17.6427 8.768 16.448C10.7307 15.2533 12.9707 14.656 15.488 14.656C17.92 14.656 20.0747 15.1893 21.952 16.256C23.8293 17.3227 25.28 18.9013 26.304 20.992C27.3707 23.04 27.904 25.536 27.904 28.48V46.784C27.904 47.7227 27.6053 48.512 27.008 49.152C26.4107 49.7493 25.6213 50.048 24.64 50.048Z" fill="black"/>
</g>
<defs>
<clipPath id="clip0_1_2">
<rect width="487" height="65" fill="white"/>
</clipPath>
</defs>
</svg>
